<svg width="121" height="48" viewBox="0 0 121 48" fill="none" xmlns="http://www.w3.org/2000/svg">
<rect y="20" width="121" height="8" fill="#E3E3E3"/>
<path d="M18.112 22.996H27.156V27.28H18.112V22.996ZM18.504 34H12.96V14.4H28.332V18.684H18.504V34ZM30.6728 34V13.224H35.9928V34H30.6728ZM47.0662 34.252C45.4049 34.252 43.9302 33.916 42.6422 33.244C41.3542 32.572 40.3369 31.648 39.5902 30.472C38.8622 29.2773 38.4982 27.9147 38.4982 26.384C38.4982 24.8533 38.8622 23.5 39.5902 22.324C40.3369 21.148 41.3542 20.2333 42.6422 19.58C43.9302 18.908 45.4049 18.572 47.0662 18.572C48.7275 18.572 50.2022 18.908 51.4902 19.58C52.7969 20.2333 53.8142 21.148 54.5422 22.324C55.2702 23.5 55.6342 24.8533 55.6342 26.384C55.6342 27.9147 55.2702 29.2773 54.5422 30.472C53.8142 31.648 52.7969 32.572 51.4902 33.244C50.2022 33.916 48.7275 34.252 47.0662 34.252ZM47.0662 30.024C47.6822 30.024 48.2235 29.884 48.6902 29.604C49.1755 29.324 49.5582 28.9133 49.8382 28.372C50.1182 27.812 50.2582 27.1493 50.2582 26.384C50.2582 25.6187 50.1182 24.9747 49.8382 24.452C49.5582 23.9107 49.1755 23.5 48.6902 23.22C48.2235 22.94 47.6822 22.8 47.0662 22.8C46.4689 22.8 45.9275 22.94 45.4422 23.22C44.9755 23.5 44.5929 23.9107 44.2942 24.452C44.0142 24.9747 43.8742 25.6187 43.8742 26.384C43.8742 27.1493 44.0142 27.812 44.2942 28.372C44.5929 28.9133 44.9755 29.324 45.4422 29.604C45.9275 29.884 46.4689 30.024 47.0662 30.024ZM67.9826 18.572C69.1586 18.572 70.2226 18.8147 71.1746 19.3C72.1266 19.7667 72.8733 20.4947 73.4146 21.484C73.9746 22.4733 74.2546 23.752 74.2546 25.32V34H68.9346V26.188C68.9346 25.1053 68.7106 24.3213 68.2626 23.836C67.8333 23.332 67.2266 23.08 66.4426 23.08C65.8826 23.08 65.3693 23.2107 64.9026 23.472C64.436 23.7147 64.072 24.0973 63.8106 24.62C63.5493 25.1427 63.4186 25.824 63.4186 26.664V34H58.0986V18.824H63.1666V23.136L62.1866 21.876C62.7653 20.7747 63.5586 19.9533 64.5666 19.412C65.5746 18.852 66.7133 18.572 67.9826 18.572Z" fill="#F91818"/>
<path d="M77.8467 34V14.4H83.3907V34H77.8467ZM97.219 34.392C95.651 34.392 94.2043 34.14 92.879 33.636C91.5537 33.132 90.3963 32.4227 89.407 31.508C88.4363 30.5747 87.6803 29.492 87.139 28.26C86.5977 27.028 86.327 25.6747 86.327 24.2C86.327 22.7253 86.5977 21.372 87.139 20.14C87.6803 18.908 88.4363 17.8347 89.407 16.92C90.3963 15.9867 91.5537 15.268 92.879 14.764C94.2043 14.26 95.651 14.008 97.219 14.008C98.8057 14.008 100.252 14.26 101.559 14.764C102.884 15.268 104.032 15.9773 105.003 16.892C105.974 17.8067 106.73 18.8893 107.271 20.14C107.831 21.372 108.111 22.7253 108.111 24.2C108.111 25.6747 107.831 27.0373 107.271 28.288C106.73 29.52 105.974 30.5933 105.003 31.508C104.032 32.4227 102.884 33.132 101.559 33.636C100.252 34.14 98.8057 34.392 97.219 34.392ZM103.631 38.732C102.791 38.732 102.007 38.6387 101.279 38.452C100.551 38.284 99.8323 38.004 99.123 37.612C98.4323 37.22 97.7043 36.688 96.939 36.016C96.1923 35.344 95.3523 34.5133 94.419 33.524L100.215 32.068C100.682 32.7587 101.102 33.3 101.475 33.692C101.848 34.084 102.212 34.364 102.567 34.532C102.94 34.7 103.332 34.784 103.743 34.784C104.826 34.784 105.815 34.3267 106.711 33.412L109.119 36.268C107.756 37.9107 105.927 38.732 103.631 38.732ZM97.219 29.8C97.9657 29.8 98.6563 29.6693 99.291 29.408C99.9443 29.1467 100.504 28.7733 100.971 28.288C101.456 27.784 101.83 27.1867 102.091 26.496C102.371 25.8053 102.511 25.04 102.511 24.2C102.511 23.3413 102.371 22.576 102.091 21.904C101.83 21.2133 101.456 20.6253 100.971 20.14C100.504 19.636 99.9443 19.2533 99.291 18.992C98.6563 18.7307 97.9657 18.6 97.219 18.6C96.4723 18.6 95.7723 18.7307 95.119 18.992C94.4843 19.2533 93.9243 19.636 93.439 20.14C92.9723 20.6253 92.599 21.2133 92.319 21.904C92.0577 22.576 91.927 23.3413 91.927 24.2C91.927 25.04 92.0577 25.8053 92.319 26.496C92.599 27.1867 92.9723 27.784 93.439 28.288C93.9243 28.7733 94.4843 29.1467 95.119 29.408C95.7723 29.6693 96.4723 29.8 97.219 29.8Z" fill="#6E41E2"/>
</svg>
