<svg width="24" height="24" viewBox="0 0 24 24" fill="none" xmlns="http://www.w3.org/2000/svg">
<path d="M16.8501 21.1C17.1001 20.85 17.2251 20.554 17.2251 20.212C17.2251 19.87 17.1001 19.5743 16.8501 19.325L9.5251 12L16.8751 4.65C17.1084 4.41667 17.2251 4.125 17.2251 3.775C17.2251 3.425 17.1001 3.125 16.8501 2.875C16.6001 2.625 16.3041 2.5 15.9621 2.5C15.6201 2.5 15.3244 2.625 15.0751 2.875L6.6751 11.3C6.5751 11.4 6.5041 11.5083 6.4621 11.625C6.4201 11.7417 6.39943 11.8667 6.4001 12C6.4001 12.1333 6.4211 12.2583 6.4631 12.375C6.5051 12.4917 6.57576 12.6 6.6751 12.7L15.1001 21.125C15.3334 21.3583 15.6211 21.475 15.9631 21.475C16.3051 21.475 16.6008 21.35 16.8501 21.1Z" fill="#A6A6A6"/>
</svg>
