<svg width="32" height="32" viewBox="0 0 32 32" fill="none" xmlns="http://www.w3.org/2000/svg">
<path d="M14.6665 22.6667H17.3332V14.6667H14.6665V22.6667ZM15.9998 12C16.3776 12 16.6945 11.872 16.9505 11.616C17.2065 11.36 17.3341 11.0436 17.3332 10.6667C17.3332 10.2889 17.2052 9.97201 16.9492 9.71601C16.6932 9.46001 16.3767 9.33245 15.9998 9.33334C15.6221 9.33334 15.3052 9.46134 15.0492 9.71734C14.7932 9.97334 14.6656 10.2898 14.6665 10.6667C14.6665 11.0444 14.7945 11.3613 15.0505 11.6173C15.3065 11.8733 15.6229 12.0009 15.9998 12ZM15.9998 29.3333C14.1554 29.3333 12.4221 28.9831 10.7998 28.2827C9.17762 27.5822 7.7665 26.6325 6.5665 25.4333C5.3665 24.2333 4.41673 22.8222 3.71717 21.2C3.01762 19.5778 2.66739 17.8444 2.6665 16C2.6665 14.1556 3.01673 12.4222 3.71717 10.8C4.41762 9.17778 5.36739 7.76667 6.5665 6.56667C7.7665 5.36667 9.17762 4.41689 10.7998 3.71734C12.4221 3.01778 14.1554 2.66756 15.9998 2.66667C17.8443 2.66667 19.5776 3.01689 21.1998 3.71734C22.8221 4.41778 24.2332 5.36756 25.4332 6.56667C26.6332 7.76667 27.5834 9.17778 28.2838 10.8C28.9843 12.4222 29.3341 14.1556 29.3332 16C29.3332 17.8444 28.9829 19.5778 28.2825 21.2C27.5821 22.8222 26.6323 24.2333 25.4332 25.4333C24.2332 26.6333 22.8221 27.5836 21.1998 28.284C19.5776 28.9844 17.8443 29.3342 15.9998 29.3333ZM15.9998 26.6667C18.9776 26.6667 21.4998 25.6333 23.5665 23.5667C25.6332 21.5 26.6665 18.9778 26.6665 16C26.6665 13.0222 25.6332 10.5 23.5665 8.43334C21.4998 6.36667 18.9776 5.33334 15.9998 5.33334C13.0221 5.33334 10.4998 6.36667 8.43317 8.43334C6.3665 10.5 5.33317 13.0222 5.33317 16C5.33317 18.9778 6.3665 21.5 8.43317 23.5667C10.4998 25.6333 13.0221 26.6667 15.9998 26.6667Z" fill="#A6A6A6"/>
</svg>
