<svg width="343" height="219" viewBox="0 0 343 219" fill="none" xmlns="http://www.w3.org/2000/svg">
<path d="M43.1698 115.479C42.0674 117.728 39.5202 118.87 37.1055 118.893C35.1523 119.896 32.987 121.43 32.7188 123.787C32.4649 125.287 34.0639 126.703 35.5036 126.046C38.0246 125.231 39.4995 122.569 42.1406 122.021C42.9571 123.098 40.7159 124.413 39.8672 125.131C38.0825 126.4 36.1558 127.913 35.7691 130.213C35.22 131.734 36.7327 133.33 38.2733 133.009C40.0255 132.7 40.28 130.633 41.397 129.529C42.5574 127.957 43.8792 125.921 46.0468 125.845C46.4802 126.473 45.295 127.955 44.861 128.802C43.4089 131.053 41.4314 133.416 41.8058 136.283C42.0836 137.831 44.0394 138.617 45.3449 137.756C47.1305 136.976 46.8887 134.946 47.3384 133.434C48.3071 131.149 49.9947 129.291 51.4766 127.334C51.8029 130.115 51.1161 132.962 49.7477 135.388C49.5753 137.244 51.9038 138.37 53.3806 137.415C54.7506 136.465 54.4842 134.556 55.1525 133.161C55.7077 130.927 55.7056 128.609 55.7504 126.327C55.8863 124.61 57.6999 122.951 59.4338 123.749C60.7598 124.643 62.109 125.665 63.7781 125.814C65.2539 126.266 66.6474 124.874 66.0406 123.4C65.0833 120.63 62.0263 119.692 60.0438 117.839C56.5501 115.395 52.6974 112.794 48.2563 112.862C46.2977 112.907 44.3236 113.881 43.1698 115.479Z" fill="#AC3939"/>
<path d="M167.459 128.948C166.595 131.123 167.403 133.603 168.903 135.289C169.435 137.271 169.733 139.733 168.27 141.398C167.391 142.515 165.406 142.297 164.957 140.888C163.939 138.632 164.856 135.939 163.577 133.767C162.319 133.878 162.815 136.255 162.852 137.293C163.093 139.326 163.256 141.609 161.906 143.321C161.198 144.655 159.143 144.611 158.398 143.342C157.512 141.936 158.784 140.462 158.847 138.995C159.206 137.205 159.786 135.012 158.477 133.464C157.77 133.558 157.489 135.309 157.175 136.141C156.528 138.56 156.134 141.412 153.914 142.953C152.668 143.732 150.897 142.871 150.673 141.427C150.092 139.702 151.649 138.595 152.413 137.334C153.387 135.229 153.614 132.894 154.038 130.64C151.908 132.16 150.368 134.423 149.548 136.893C148.371 138.178 146.13 137.273 145.864 135.651C145.662 134.106 147.151 133.092 147.697 131.753C148.894 129.967 150.501 128.513 152.052 127.049C153.155 125.877 153.165 123.58 151.525 122.881C150.073 122.524 148.518 122.232 147.368 121.17C146.128 120.432 146.217 118.594 147.618 118.089C150.137 117.012 152.705 118.539 155.233 118.749C159.118 119.633 163.337 120.667 166.078 123.784C167.276 125.168 167.841 127.146 167.459 128.948Z" fill="#AC3939"/>
<path d="M166.4 129.004C166.226 130.5 165.522 132.251 166.602 133.572C167.827 135.704 168.914 138.356 167.889 140.783C167.33 142.046 164.859 142.423 164.713 140.706C164.427 138.837 164.575 136.913 164.031 135.08C164.029 134.056 162.618 131.929 161.963 133.53C161.525 136.371 162.559 139.346 161.552 142.128C161.441 143.475 159.549 144.901 158.511 143.603C157.75 141.952 158.679 140.186 158.708 138.485C158.89 136.551 158.812 134.572 158.275 132.697C156.493 133.719 156.458 135.98 155.831 137.708C155.186 139.605 154.445 141.628 152.814 142.906C151.178 143.439 149.975 140.928 151.158 139.826C152.64 137.621 153.652 135.012 153.534 132.323C153.544 131.624 155.068 129.619 153.606 130.634C151.872 131.591 150.172 132.931 149.574 134.902C149.181 136.156 147.97 138.019 146.464 137.045C145.074 135.735 146.498 134.017 147.38 132.888C148.465 131.26 149.678 129.708 151.114 128.38C152.023 127.274 153.123 126.066 153.056 124.534C152.235 123.049 150.284 123.173 149.023 122.28C148.071 121.699 146.604 121.35 146.404 120.086C146.637 118.826 148.18 118.516 149.27 118.592C151.073 118.798 152.8 119.419 154.585 119.744C158.052 120.541 161.676 121.438 164.49 123.732C165.941 125.03 166.811 127.057 166.4 129.004Z" fill="#AC3939"/>
<path d="M37.0482 99.2899L43.4416 115.133C47.4522 117.919 50.0415 115.094 52.2618 113.518C52.2618 113.518 47.0434 96.5437 42.762 92.9144C40.5631 90.3557 34.9964 94.831 37.0482 99.2899Z" fill="#FF4646"/>
<path d="M61.6886 68.0878L35.6559 89.5807C33.1414 94.1161 35.3955 98.2978 42.0848 97.5927L73.3308 75.3868C73.8107 69.3976 71.0581 62.8119 61.6886 68.0878Z" fill="#FF5555"/>
<path d="M163.937 103.957L158.176 120.04C159.318 124.788 163.131 124.4 165.837 124.7C165.837 124.7 173.228 108.553 172.444 102.995C172.504 99.6221 165.37 99.2622 163.937 103.957Z" fill="#FF4646"/>
<path d="M138.93 80.6772L162.679 104.669C167.423 106.765 171.385 104.143 170.08 97.5446L145.151 68.425C139.143 68.4864 132.831 71.8208 138.93 80.6772Z" fill="#FF5555"/>
<path d="M69.831 33.0616C69.831 33.0616 60.6408 135.441 76.4213 140.118C92.2018 144.794 126.181 149.919 132.705 139.935C139.229 129.952 149.611 34.3443 142.642 28.2003C114.437 15.7623 83.6035 11.0379 69.831 33.0616Z" fill="#FF8080"/>
<path d="M84.7603 167.22C87.434 178.216 85.2391 186.611 84.4042 195.733L75.474 193.535C75.5208 184.173 73.9548 174.645 77.398 166.652L84.7603 167.22Z" fill="#FF6969"/>
<path d="M94.6514 140.213L85.352 171.011C81.3795 173.448 77.9706 173.618 75.4429 170.243L81.9323 132.463C86.7646 132.1 97.7753 128.236 94.6514 140.213Z" fill="#FF8080"/>
<path d="M93.0841 145.234L90.4772 144.589L82.749 173.163L85.3776 172.057L93.0841 145.234Z" fill="black" fill-opacity="0.327925"/>
<path d="M83.0211 173.051L82.5366 189.296L84.9097 189.897C86.2038 183.315 86.2259 177.838 85.6093 171.866L83.0211 173.051Z" fill="black" fill-opacity="0.327925"/>
<path d="M84.1693 197.444L85.6279 189.852C81.4523 188.287 78.0811 189.565 74.7051 190.826L74.7407 193.742L81.2409 198.356L84.1693 197.444Z" fill="#C5BBB5"/>
<path d="M64.1509 199.94C64.1509 199.94 75.342 195.823 74.8054 193.344C74.2688 190.864 79.8109 190.602 79.8109 190.602L77.8247 196.183L80.2923 194.124C86.895 193.059 74.9602 206.656 67.4019 205.995L64.1509 199.94Z" fill="#AB38B9"/>
<path d="M85.067 204.456C84.8045 207.311 56.0793 212.633 50.3226 207.764C41.3297 202.361 53.1787 191.077 60.0222 195.261C62.9628 197.224 66.2457 202.676 66.2457 202.676L67.4137 205.64C80.4587 202.707 86.9241 186.157 85.067 204.456Z" fill="#530055"/>
<path d="M64.8517 198.999C65.2646 198.85 66.7986 198.593 67.4464 199.82C68.0941 201.048 67.7908 201.688 67.7908 201.688C68.8034 201.943 68.7544 201.966 69.4775 201.31C68.2721 196.392 63.66 197.505 64.8517 198.999Z" fill="#28170B"/>
<path d="M70.6858 202.678C70.7833 202.124 70.7213 201.45 70.3525 201.203C69.9838 200.956 69.3095 201.002 69.3095 201.002C64.6507 201.475 69.113 205.138 70.6858 202.678Z" fill="#2B1100"/>
<path d="M67.9638 198.479C68.3152 198.804 69.7277 197.566 70.8698 198.355C71.933 198.986 72.3974 201.071 73.5409 200.777C75.3576 198.748 72.2021 196.891 70.432 196.647C69.3761 196.535 68.1605 197.15 68.1605 197.15C67.784 197.495 67.3931 197.775 67.9638 198.479Z" fill="#28170B"/>
<path d="M71.6015 195.546C71.9529 195.871 73.3654 194.634 74.5075 195.422C75.5707 196.053 76.0351 198.139 77.1786 197.844C78.9953 195.815 75.8398 193.958 74.0697 193.714C73.0138 193.602 71.7982 194.217 71.7982 194.217C71.4217 194.562 71.0308 194.842 71.6015 195.546Z" fill="#28170B"/>
<path d="M72.3898 202.59C73.5045 203.935 76.8336 201.415 74.2721 199.667C72.4524 198.586 71.2816 201.549 72.3898 202.59Z" fill="#2B1100"/>
<path d="M75.2957 198.186C75.0949 198.525 75.3183 199.288 77.0128 200.073C80.6502 200.495 79.2849 191.708 75.2957 198.186Z" fill="#2B1100"/>
<path d="M98.1708 17.4165C87.4704 18.4942 75.7109 25.0681 69.7739 34.5619C69.7739 34.5619 60.5836 136.941 76.3641 141.618C81.393 143.108 95.5347 143.559 103.627 145.098C100.951 119.767 95.7549 86.337 96.6346 72.4331L98.1708 17.4165Z" fill="#FF5555" fill-opacity="0.527893"/>
<path d="M108.431 68.9258C107.401 65.131 85.493 66.7147 86.5728 70.9745C91.2862 81.6151 106.054 78.6587 108.431 68.9258Z" fill="#570000"/>
<path d="M93.9258 67.7168L95.2737 70.6841C96.007 71.023 96.7303 71.1508 97.416 70.4771L96.8422 67.7999C96.0622 67.9193 95.6807 67.8738 94.5741 67.9002L93.9258 67.7168Z" fill="white"/>
<path d="M96.8311 67.8293L97.7099 70.5089C98.7084 70.8352 99.0588 70.7284 100.1 70.033L99.8152 67.4001L96.8311 67.8293Z" fill="white"/>
<path d="M64.5488 69.675C63.8813 67.5994 52.6599 76.8238 52.7947 79.3112C53.854 81.3353 65.6626 72.0317 64.5488 69.675Z" fill="white" fill-opacity="0.327925"/>
<path d="M67.04 77.0938L67.2145 80.1521L42.5136 97.346L40.6802 97.4585L67.04 77.0938Z" fill="black" fill-opacity="0.327925"/>
<path d="M116.207 166.049C113.534 177.046 115.728 185.441 116.563 194.562L125.494 192.365C125.447 183.002 127.013 173.475 123.57 165.482L116.207 166.049Z" fill="#FF6969"/>
<path d="M106.316 139.042L115.616 169.84C119.588 172.277 122.997 172.447 125.525 169.073L119.035 131.293C114.203 130.93 103.192 127.066 106.316 139.042Z" fill="#FF8080"/>
<path d="M107.884 144.063L110.491 143.419L118.219 171.992L115.59 170.886L107.884 144.063Z" fill="black" fill-opacity="0.327925"/>
<path d="M117.947 171.881L118.431 188.126L116.058 188.726C114.764 182.145 114.742 176.668 115.359 170.696L117.947 171.881Z" fill="black" fill-opacity="0.327925"/>
<path d="M116.798 196.273L115.34 188.681C119.515 187.117 122.887 188.395 126.263 189.655L126.227 192.571L119.727 197.185L116.798 196.273Z" fill="#C5BBB5"/>
<path d="M136.817 198.77C136.817 198.77 125.626 194.653 126.162 192.173C126.699 189.694 121.157 189.432 121.157 189.432L123.143 195.012L120.676 192.954C114.073 191.889 126.008 205.486 133.566 204.824L136.817 198.77Z" fill="#AB38B9"/>
<path d="M115.901 203.285C116.163 206.14 144.888 211.463 150.645 206.593C159.638 201.19 147.789 189.906 140.946 194.091C138.005 196.054 134.722 201.506 134.722 201.506L133.554 204.47C120.509 201.537 114.044 184.986 115.901 203.285Z" fill="#530055"/>
<path d="M136.116 197.828C135.703 197.679 134.169 197.422 133.521 198.65C132.874 199.877 133.177 200.518 133.177 200.518C132.164 200.772 132.213 200.796 131.49 200.14C132.696 195.221 137.308 196.335 136.116 197.828Z" fill="#28170B"/>
<path d="M130.282 201.508C130.184 200.954 130.246 200.279 130.615 200.033C130.984 199.786 131.658 199.832 131.658 199.832C136.317 200.305 131.855 203.967 130.282 201.508Z" fill="#2B1100"/>
<path d="M133.003 197.309C132.652 197.634 131.24 196.396 130.097 197.185C129.034 197.816 128.57 199.901 127.426 199.607C125.61 197.578 128.765 195.721 130.535 195.477C131.591 195.364 132.807 195.98 132.807 195.98C133.183 196.325 133.574 196.605 133.003 197.309Z" fill="#28170B"/>
<path d="M129.366 194.376C129.015 194.701 127.602 193.463 126.46 194.252C125.397 194.883 124.933 196.968 123.789 196.674C121.973 194.645 125.128 192.788 126.898 192.544C127.954 192.431 129.17 193.047 129.17 193.047C129.546 193.391 129.937 193.672 129.366 194.376Z" fill="#28170B"/>
<path d="M128.578 201.42C127.463 202.765 124.134 200.244 126.696 198.497C128.515 197.416 129.686 200.378 128.578 201.42Z" fill="#2B1100"/>
<path d="M125.672 197.016C125.873 197.354 125.649 198.118 123.955 198.903C120.318 199.325 121.683 190.538 125.672 197.016Z" fill="#2B1100"/>
<path d="M133.78 24.9817L143.08 29.3052C144.426 66.5629 143.429 103.286 134.623 135.366C133.626 141.54 130.545 143.626 126.536 143.894C129.755 103.975 135.408 63.2047 133.78 24.9817Z" fill="black" fill-opacity="0.116077"/>
<path d="M75.1899 51.2317C75.1226 49.4338 75.5569 47.6512 76.4482 46.0667C77.3395 44.4822 78.6557 43.1528 80.2619 42.2149C81.8681 41.277 83.7065 40.7643 85.5884 40.7294C87.4703 40.6946 89.328 41.1388 90.971 42.0166C92.614 42.8943 93.9832 44.174 94.9381 45.7243C95.8929 47.2746 96.3991 49.0398 96.4047 50.8388" fill="#FF5555"/>
<path d="M85.4769 58.1764C89.6256 58.1764 92.9889 54.8131 92.9889 50.6644C92.9889 46.5156 89.6256 43.1523 85.4769 43.1523C81.3281 43.1523 77.9648 46.5156 77.9648 50.6644C77.9648 54.8131 81.3281 58.1764 85.4769 58.1764Z" fill="#E3DEDB"/>
<path d="M85.5593 57.8008C89.2844 57.8008 92.3042 54.7104 92.3042 50.8981C92.3042 47.0858 89.2844 43.9954 85.5593 43.9954C81.8342 43.9954 78.8145 47.0858 78.8145 50.8981C78.8145 54.7104 81.8342 57.8008 85.5593 57.8008Z" fill="url(#paint0_radial_405_7)"/>
<path d="M86.5139 54.9821C88.5063 54.9821 90.1215 53.2001 90.1215 51.0019C90.1215 48.8037 88.5063 47.0217 86.5139 47.0217C84.5214 47.0217 82.9062 48.8037 82.9062 51.0019C82.9062 53.2001 84.5214 54.9821 86.5139 54.9821Z" fill="#1A1A1A"/>
<path d="M81.0541 43.1087C77.4183 35.9252 75.2642 38.2877 75.2642 38.2877C77.9803 39.649 79.4572 41.0498 79.886 43.6825L81.0541 43.1087Z" fill="#570000"/>
<path d="M84.3446 41.907C80.7089 34.7236 78.5547 37.086 78.5547 37.086C81.2709 38.4473 82.7477 39.8482 83.1765 42.4808L84.3446 41.907Z" fill="#570000"/>
<path d="M88.1976 41.2744C84.5619 34.091 82.4077 36.4535 82.4077 36.4535C85.1239 37.8148 86.6008 39.2156 87.0296 41.8483L88.1976 41.2744Z" fill="#570000"/>
<path d="M122.24 50.9126C122.307 49.1147 121.873 47.3321 120.982 45.7476C120.09 44.1631 118.774 42.8337 117.168 41.8958C115.562 40.9579 113.723 40.4452 111.841 40.4104C109.959 40.3755 108.102 40.8197 106.459 41.6975C104.816 42.5752 103.446 43.8549 102.492 45.4052C101.537 46.9556 101.031 48.7207 101.025 50.5197" fill="#FF5555"/>
<path d="M111.953 57.8573C107.804 57.8573 104.441 54.494 104.441 50.3453C104.441 46.1965 107.804 42.8333 111.953 42.8333C116.102 42.8333 119.465 46.1965 119.465 50.3453C119.465 54.494 116.102 57.8573 111.953 57.8573Z" fill="#E3DEDB"/>
<path d="M111.87 57.4817C108.145 57.4817 105.125 54.3913 105.125 50.579C105.125 46.7667 108.145 43.6763 111.87 43.6763C115.595 43.6763 118.615 46.7667 118.615 50.579C118.615 54.3913 115.595 57.4817 111.87 57.4817Z" fill="url(#paint1_radial_405_7)"/>
<path d="M110.916 54.663C108.923 54.663 107.308 52.881 107.308 50.6828C107.308 48.4846 108.923 46.7026 110.916 46.7026C112.908 46.7026 114.523 48.4846 114.523 50.6828C114.523 52.881 112.908 54.663 110.916 54.663Z" fill="#1A1A1A"/>
<path d="M116.376 42.7896C120.011 35.6061 122.166 37.9686 122.166 37.9686C119.449 39.3299 117.972 40.7308 117.544 43.3634L116.376 42.7896Z" fill="#570000"/>
<path d="M113.085 41.5879C116.721 34.4045 118.875 36.7669 118.875 36.7669C116.159 38.1282 114.682 39.5291 114.253 42.1618L113.085 41.5879Z" fill="#570000"/>
<path d="M109.232 40.9553C112.868 33.7719 115.022 36.1344 115.022 36.1344C112.306 37.4957 110.829 38.8965 110.4 41.5292L109.232 40.9553Z" fill="#570000"/>
<path d="M83.2695 4.27204C89.0234 10.4857 87.0226 15.3852 81.1562 25.7889L101.19 21.1245L120.626 27.9916C117.825 17.3959 118 13.7944 124.957 3.67212L102.505 13.3184L83.2695 4.27204Z" fill="#FF1B1B"/>
<path d="M129.208 29.1364C127.309 28.2214 126.299 42.2347 128.133 43.7975C130.257 44.4035 131.603 29.9258 129.208 29.1364Z" fill="white" fill-opacity="0.327925"/>
<path d="M104.131 12.7494L102.852 21.6896L101.566 20.8259L99.3223 22.0073L101.01 12.2537L102.189 13.4965L104.131 12.7494Z" fill="#BB0000"/>
<path d="M84.9282 5.6001L100.012 14.0587L100.808 12.324L84.9282 5.6001Z" fill="white" fill-opacity="0.218663"/>
<path d="M124.389 4.49487L103.617 14.1452L104.128 12.7814L124.389 4.49487Z" fill="white" fill-opacity="0.218663"/>
<path d="M142.958 82.9475L164.917 103.096V105.331L162.647 105.6L142.078 84.8158L142.958 82.9475Z" fill="black" fill-opacity="0.206694"/>
<path d="M171.381 105.005L163.533 124.168L166.746 124.866L172.575 106.269L171.662 103.796L171.381 105.005Z" fill="black" fill-opacity="0.206694"/>
<path d="M67.188 94.5735C70.0881 110.703 77.9065 116.491 75.3456 146.211C90.1154 143.866 104.898 141.955 119.944 149.23C120.261 121.959 127.832 112.685 132.883 97.1609C112.379 104.021 90.0076 103.291 67.188 94.5735Z" fill="#8C2648"/>
<path d="M71.2715 99.5242C73.7831 111.562 80.5544 115.881 78.3365 138.062C91.1281 136.312 103.931 134.886 116.961 140.315C117.236 119.962 123.793 113.041 128.168 101.455C110.41 106.575 91.0348 106.03 71.2715 99.5242Z" fill="#9D2B51"/>
<path d="M132.71 97.0128L141.63 95.6484L141.084 97.8775L132.71 97.0128Z" fill="#8C2648"/>
<path d="M81.3735 116.913L82.6433 113.055L80.1855 109.823L84.2465 109.838L86.5615 106.502L87.8016 110.369L91.6901 111.54L88.3955 113.914L88.4837 117.974L85.2075 115.574L81.3735 116.913Z" fill="white"/>
<path d="M108.656 117.424L109.926 113.567L107.468 110.334L111.529 110.349L113.844 107.013L115.084 110.88L118.973 112.051L115.678 114.425L115.766 118.485L112.49 116.085L108.656 117.424Z" fill="white"/>
<path d="M94.517 127.348L95.7868 123.491L93.3291 120.258L97.39 120.274L99.7051 116.937L100.945 120.804L104.834 121.975L101.539 124.349L101.627 128.409L98.351 126.01L94.517 127.348Z" fill="white"/>
<g clip-path="url(#clip0_405_7)">
<path d="M216.451 174.175C219.124 185.171 216.93 193.566 216.095 202.687L207.164 200.49C207.211 191.128 205.645 181.6 209.088 173.607L216.451 174.175Z" fill="#688B25"/>
<path d="M226.342 147.168L217.043 177.966C213.07 180.402 209.661 180.572 207.134 177.198L213.623 139.418C218.456 139.055 229.466 135.191 226.342 147.168Z" fill="#7FA82C"/>
<path d="M166.072 126.226C163.351 123.326 160.174 121.961 155.178 121.083C160.761 110.629 172.711 116.697 166.072 126.226Z" fill="#304011"/>
<path d="M168.328 129.155C166.281 131.651 166.303 135.249 167.568 138.094C167.436 140.921 166.796 144.281 164.176 145.857C162.552 146.957 160.036 145.839 160.036 143.799C159.643 140.406 161.976 137.252 161.206 133.862C159.507 133.48 159.162 136.813 158.775 138.192C158.241 140.964 157.497 144.033 155.007 145.717C153.517 147.174 150.835 146.254 150.388 144.276C149.813 142.055 152.101 140.651 152.799 138.75C154.022 136.548 155.702 133.909 154.631 131.326C153.663 131.154 152.559 133.337 151.798 134.299C149.934 137.206 148.221 140.789 144.658 141.884C142.694 142.386 140.726 140.513 141.037 138.521C140.997 136.01 143.507 135.207 145.04 133.871C147.202 131.512 148.478 128.539 149.98 125.755C146.544 126.859 143.573 129.188 141.46 132.09C139.375 133.286 136.808 131.157 137.138 128.914C137.52 126.799 139.902 126.09 141.18 124.56C143.503 122.714 146.223 121.476 148.875 120.203C150.816 119.125 151.792 116.111 149.929 114.504C148.171 113.427 146.25 112.392 145.183 110.513C143.863 109.025 144.75 106.646 146.803 106.569C150.564 106.21 153.3 109.293 156.534 110.627C161.269 113.417 166.38 116.544 168.676 121.789C169.672 124.111 169.585 126.947 168.328 129.155Z" fill="#304011"/>
<path d="M166.912 128.785C166.057 130.678 164.398 132.685 165.264 134.873C165.981 138.188 166.297 142.129 163.933 144.888C162.669 146.314 159.263 145.774 159.791 143.457C160.199 140.88 161.199 138.414 161.253 135.778C161.679 134.431 160.716 131.044 159.184 132.873C157.418 136.424 157.53 140.766 155.042 144.001C154.331 145.725 151.247 146.806 150.427 144.666C150.119 142.177 152.08 140.245 152.83 138.021C153.88 135.556 154.607 132.922 154.687 130.233C151.917 130.829 150.923 133.786 149.375 135.795C147.732 138.018 145.911 140.366 143.231 141.362C140.858 141.376 140.329 137.573 142.346 136.62C145.218 134.344 147.641 131.338 148.613 127.755C148.919 126.841 151.762 124.845 149.416 125.565C146.735 126.097 143.939 127.146 142.327 129.485C141.285 130.968 138.913 132.909 137.343 130.998C136.064 128.694 138.656 127.032 140.288 125.919C142.396 124.233 144.641 122.702 147.085 121.559C148.743 120.487 150.695 119.36 151.248 117.318C150.792 115.022 148.176 114.368 146.893 112.666C145.885 111.504 144.104 110.43 144.371 108.685C145.205 107.127 147.363 107.366 148.762 107.923C151.046 108.949 153.056 110.489 155.265 111.664C159.487 114.164 163.874 116.862 166.611 121.056C167.974 123.37 168.268 126.398 166.912 128.785Z" fill="#304011"/>
<path d="M312.294 42.7749C313.147 39.6613 311.66 36.3843 309.346 34.3019C308.314 31.6664 307.529 28.3376 309.28 25.8308C310.315 24.1645 313.068 24.1599 313.899 26.0229C315.64 28.9611 314.795 32.7919 316.881 35.574C318.588 35.2303 317.544 32.0468 317.336 30.6297C316.694 27.8804 316.122 24.7747 317.71 22.2221C318.477 20.2839 321.301 20.0311 322.516 21.6559C323.945 23.4491 322.428 25.6643 322.566 27.6841C322.346 30.1932 321.887 33.2884 323.918 35.2103C324.872 34.9731 324.99 32.5303 325.293 31.3417C325.811 27.9268 325.915 23.9564 328.722 21.5049C330.312 20.2455 332.872 21.1547 333.399 23.1002C334.46 25.3774 332.494 27.1329 331.639 28.9776C330.626 32.0128 330.672 35.2479 330.436 38.4029C333.123 35.9938 334.888 32.6565 335.634 29.1449C337.051 27.2035 340.263 28.1013 340.875 30.2843C341.389 32.3712 339.502 33.9893 338.958 35.9075C337.59 38.5398 335.61 40.7789 333.707 43.0219C332.374 44.7973 332.711 47.9479 335.067 48.6563C337.112 48.9231 339.288 49.0859 341.028 50.366C342.84 51.1878 342.999 53.7218 341.156 54.6285C337.867 56.4892 334.112 54.7886 330.616 54.888C325.154 54.2699 319.212 53.4972 314.978 49.643C313.123 47.929 312.047 45.3033 312.294 42.7749Z" fill="#304011"/>
<path d="M313.738 42.5359C313.748 40.4588 314.445 37.9498 312.762 36.3047C310.757 33.5695 308.862 30.0992 309.896 26.6159C310.469 24.7989 313.799 23.9041 314.262 26.2352C314.939 28.7545 315.031 31.4138 316.057 33.8437C316.216 35.2475 318.475 37.9477 319.129 35.6532C319.295 31.6911 317.423 27.7709 318.377 23.8027C318.324 21.939 320.7 19.6948 322.321 21.3153C323.616 23.4625 322.613 26.0261 322.834 28.3627C322.88 31.0412 323.289 33.7425 324.312 36.2311C326.598 34.5581 326.302 31.4525 326.896 28.9873C327.49 26.2878 328.197 23.402 330.239 21.4002C332.399 20.4197 334.432 23.6778 332.979 25.3695C331.284 28.6187 330.296 32.3504 330.869 36.0188C330.962 36.9784 329.178 39.9602 331.028 38.3458C333.259 36.7684 335.385 34.671 335.904 31.878C336.251 30.0984 337.626 27.3597 339.839 28.4648C341.945 30.0479 340.256 32.6214 339.219 34.3036C337.981 36.7015 336.555 39.0147 334.789 41.0547C333.712 42.7095 332.389 44.5339 332.715 46.6237C334.068 48.5345 336.723 48.0659 338.589 49.0973C339.982 49.748 342.046 50.0029 342.514 51.7049C342.387 53.4671 340.319 54.1285 338.814 54.1902C336.311 54.1835 333.847 53.5973 331.351 53.4237C326.477 52.8618 321.371 52.1852 317.163 49.4709C314.975 47.9137 313.473 45.268 313.738 42.5359Z" fill="#304011"/>
<path d="M170.757 100.347L161.061 114.413C160.947 119.294 164.731 119.898 167.269 120.883C167.269 120.883 178.557 107.173 179.226 101.601C180.15 98.3557 173.347 96.1771 170.757 100.347Z" fill="#688B25"/>
<path d="M198.689 76.0878L172.656 97.5807C170.141 102.116 172.395 106.298 179.085 105.593L210.331 83.3868C210.811 77.3976 208.058 70.8119 198.689 76.0878Z" fill="#7FA82C"/>
<path d="M313.881 64.4474L323.636 50.4216C323.77 45.5403 319.989 44.9207 317.454 43.9259C317.454 43.9259 306.11 57.5884 305.418 63.1582C304.481 66.3993 311.274 68.6061 313.881 64.4474Z" fill="#688B25"/>
<path d="M285.85 88.5905L311.972 67.2054C314.505 62.6805 312.268 58.4894 305.576 59.1669L274.238 81.2433C273.734 87.2305 276.459 93.8276 285.85 88.5905Z" fill="#7FA82C"/>
<path d="M260.236 176.081C257.562 187.077 259.757 195.472 260.592 204.594L269.522 202.396C269.476 193.034 271.042 183.507 267.598 175.513L260.236 176.081Z" fill="#688B25"/>
<path d="M250.345 149.074L259.644 179.872C263.617 182.309 267.025 182.479 269.553 179.104L263.064 141.325C258.231 140.962 247.221 137.097 250.345 149.074Z" fill="#7FA82C"/>
<path d="M206.831 41.0616C206.831 41.0616 197.641 143.441 213.421 148.118C229.202 152.794 263.181 157.919 269.705 147.935C276.229 137.952 286.611 42.3443 279.642 36.2003C251.437 23.7623 220.604 19.0379 206.831 41.0616Z" fill="url(#paint2_linear_405_7)"/>
<path d="M238.484 32.147C227.784 33.2247 212.711 33.0683 206.774 42.5621C206.774 42.5621 197.584 144.941 213.364 149.618C218.393 151.108 232.535 151.559 240.627 153.098L233.635 80.4333L238.484 32.147Z" fill="#688B25" fill-opacity="0.527893"/>
<path d="M272.111 33.1372L273.852 33.9039C265.412 35.5764 258.931 36.4703 241.295 37.8898C225.322 36.3809 213.071 35.9398 216.094 35.6873L211.826 34.5421L213.046 33.672L272.111 33.1372Z" fill="black" fill-opacity="0.327925"/>
<path d="M212.178 22.0658L212.105 33.5282C232.725 37.5417 253.317 37.1826 273.884 32.8342L276.028 20.6938L212.178 22.0658Z" fill="url(#paint3_linear_405_7)"/>
<path d="M194.826 11.3428L211.904 22.4283L276.855 21.6573L292.444 10.4175C258.868 6.61769 226.493 7.57856 194.826 11.3428Z" fill="url(#paint4_linear_405_7)"/>
<path d="M251.22 69.5026C257.954 69.5026 263.412 65.0468 263.412 59.5503C263.412 54.0537 257.954 49.5979 251.22 49.5979C244.486 49.5979 239.028 54.0537 239.028 59.5503C239.028 65.0468 244.486 69.5026 251.22 69.5026Z" fill="#85B12E"/>
<path d="M251.002 69.1262C256.209 69.1262 260.431 64.9051 260.431 59.698C260.431 54.4909 256.209 50.2698 251.002 50.2698C245.795 50.2698 241.574 54.4909 241.574 59.698C241.574 64.9051 245.795 69.1262 251.002 69.1262Z" fill="#E3DEDB"/>
<path d="M251.106 68.6549C255.781 68.6549 259.571 64.7761 259.571 59.9914C259.571 55.2067 255.781 51.3279 251.106 51.3279C246.431 51.3279 242.641 55.2067 242.641 59.9914C242.641 64.7761 246.431 68.6549 251.106 68.6549Z" fill="url(#paint5_radial_405_7)"/>
<path d="M251.256 65.1172C253.757 65.1172 255.784 62.8807 255.784 60.1217C255.784 57.3628 253.757 55.1262 251.256 55.1262C248.756 55.1262 246.729 57.3628 246.729 60.1217C246.729 62.8807 248.756 65.1172 251.256 65.1172Z" fill="#1A1A1A"/>
<path d="M212.619 58.806C212.402 56.2204 213.23 53.6536 214.933 51.6336C216.636 49.6136 219.083 48.294 221.773 47.9461C224.462 47.5983 227.189 48.2486 229.392 49.7634C231.595 51.2781 233.107 53.5422 233.617 56.0899C234.128 58.6376 233.597 61.2753 232.134 63.4605C230.672 65.6457 228.389 67.2123 225.755 67.838" fill="#85B12E"/>
<path d="M222.477 68.0925C227.684 68.0925 231.905 63.8714 231.905 58.6643C231.905 53.4572 227.684 49.2361 222.477 49.2361C217.269 49.2361 213.048 53.4572 213.048 58.6643C213.048 63.8714 217.269 68.0925 222.477 68.0925Z" fill="#E3DEDB"/>
<path d="M222.581 67.6212C227.256 67.6212 231.046 63.7424 231.046 58.9577C231.046 54.173 227.256 50.2942 222.581 50.2942C217.905 50.2942 214.115 54.173 214.115 58.9577C214.115 63.7424 217.905 67.6212 222.581 67.6212Z" fill="url(#paint6_radial_405_7)"/>
<path d="M222.731 64.0835C225.232 64.0835 227.259 61.847 227.259 59.088C227.259 56.3291 225.232 54.0925 222.731 54.0925C220.23 54.0925 218.203 56.3291 218.203 59.088C218.203 61.847 220.23 64.0835 222.731 64.0835Z" fill="#1A1A1A"/>
<path d="M215.86 204.398L217.318 196.807C213.143 195.242 209.772 196.52 206.396 197.781L206.431 200.697L212.931 205.31L215.86 204.398Z" fill="#C87137"/>
<path d="M195.841 206.895C195.841 206.895 207.032 202.778 206.496 200.298C205.959 197.819 211.501 197.557 211.501 197.557L209.515 203.137L211.983 201.079C218.585 200.014 206.651 213.611 199.092 212.95L195.841 206.895Z" fill="#803300"/>
<path d="M216.757 211.411C216.495 214.266 187.77 219.588 182.013 214.719C173.02 209.316 184.869 198.032 191.713 202.216C194.653 204.179 197.936 209.631 197.936 209.631L199.104 212.595C212.149 209.662 218.615 193.111 216.757 211.411Z" fill="#552200"/>
<path d="M196.542 205.954C196.955 205.804 198.489 205.548 199.137 206.775C199.784 208.003 199.481 208.643 199.481 208.643C200.494 208.897 200.445 208.921 201.168 208.265C199.963 203.346 195.35 204.46 196.542 205.954Z" fill="#C87137"/>
<path d="M202.376 209.633C202.474 209.079 202.412 208.405 202.043 208.158C201.674 207.911 201 207.957 201 207.957C196.341 208.43 200.803 212.092 202.376 209.633Z" fill="#2B1100"/>
<path d="M199.655 205.434C200.006 205.759 201.419 204.521 202.561 205.31C203.624 205.941 204.088 208.026 205.232 207.732C207.048 205.703 203.893 203.846 202.123 203.602C201.067 203.489 199.851 204.105 199.851 204.105C199.475 204.45 199.084 204.73 199.655 205.434Z" fill="#C87137"/>
<path d="M203.292 202.501C203.643 202.826 205.056 201.588 206.198 202.377C207.261 203.008 207.725 205.093 208.869 204.799C210.686 202.77 207.53 200.913 205.76 200.669C204.704 200.557 203.489 201.172 203.489 201.172C203.112 201.517 202.721 201.797 203.292 202.501Z" fill="#C87137"/>
<path d="M204.08 209.545C205.195 210.89 208.524 208.369 205.963 206.622C204.143 205.541 202.972 208.503 204.08 209.545Z" fill="#2B1100"/>
<path d="M206.986 205.141C206.785 205.479 207.009 206.243 208.703 207.028C212.341 207.45 210.975 198.663 206.986 205.141Z" fill="#2B1100"/>
<path d="M260.827 206.305L259.368 198.713C263.544 197.148 266.915 198.426 270.291 199.687L270.255 202.603L263.755 207.217L260.827 206.305Z" fill="#C87137"/>
<path d="M280.845 208.801C280.845 208.801 269.654 204.684 270.191 202.205C270.727 199.725 265.185 199.463 265.185 199.463L267.171 205.044L264.704 202.985C258.101 201.92 270.036 215.517 277.594 214.856L280.845 208.801Z" fill="#803300"/>
<path d="M259.929 213.317C260.192 216.172 288.917 221.494 294.673 216.625C303.666 211.222 291.817 199.938 284.974 204.122C282.033 206.085 278.75 211.537 278.75 211.537L277.582 214.502C264.537 211.568 258.072 195.018 259.929 213.317Z" fill="#552200"/>
<path d="M280.144 207.86C279.731 207.711 278.197 207.454 277.55 208.681C276.902 209.909 277.205 210.549 277.205 210.549C276.193 210.804 276.242 210.827 275.519 210.171C276.724 205.253 281.336 206.366 280.144 207.86Z" fill="#C87137"/>
<path d="M274.31 211.539C274.213 210.985 274.275 210.311 274.644 210.064C275.012 209.817 275.687 209.864 275.687 209.864C280.345 210.336 275.883 213.999 274.31 211.539Z" fill="#2B1100"/>
<path d="M277.032 207.34C276.681 207.665 275.268 206.427 274.126 207.216C273.063 207.847 272.599 209.933 271.455 209.638C269.639 207.609 272.794 205.752 274.564 205.508C275.62 205.396 276.836 206.011 276.836 206.011C277.212 206.356 277.603 206.636 277.032 207.34Z" fill="#C87137"/>
<path d="M273.395 204.407C273.043 204.733 271.631 203.495 270.489 204.283C269.425 204.914 268.961 207 267.817 206.705C266.001 204.677 269.156 202.819 270.926 202.576C271.982 202.463 273.198 203.078 273.198 203.078C273.574 203.423 273.965 203.703 273.395 204.407Z" fill="#C87137"/>
<path d="M272.606 211.451C271.492 212.796 268.162 210.276 270.724 208.528C272.544 207.447 273.714 210.41 272.606 211.451Z" fill="#2B1100"/>
<path d="M269.7 207.047C269.901 207.386 269.678 208.149 267.983 208.934C264.346 209.356 265.711 200.569 269.7 207.047Z" fill="#2B1100"/>
<path d="M245.542 78.1763C238.78 81.5627 234.017 84.8313 223.683 80.225C228.396 90.8656 243.164 87.9092 245.542 78.1763Z" fill="#232F0C"/>
<path d="M230.915 82.3286L232.263 85.2959C232.996 85.6348 233.72 85.7626 234.405 85.0889L233.831 82.4117C233.052 82.5311 232.67 82.4856 231.563 82.5121L230.915 82.3286Z" fill="white"/>
<path d="M233.82 82.4411L234.699 85.1207C235.698 85.447 236.048 85.3402 237.089 84.6448L236.805 82.012L233.82 82.4411Z" fill="white"/>
<path d="M221.585 90.4126L237.052 102.521L229.194 110.812L217.837 95.1574L221.585 90.4126Z" fill="#304011"/>
<path d="M233.557 106.754L237.441 113.395L241.331 106.565L237.308 103.049L233.557 106.754Z" fill="#552200"/>
<path d="M235.371 109.346L230.563 142.577L239.473 150.052L247.472 141.786L239.801 109.016L235.371 109.346Z" fill="#552200"/>
<path d="M237.447 102.437L252.208 90.2759L255.557 93.8004L246.923 110.972L237.447 102.437Z" fill="#304011"/>
<path d="M240.887 113.765L234.337 116.66L233.712 120.678L241.835 117.377L240.887 113.765Z" fill="#E68C0B"/>
<path d="M243.197 123.602L232.72 127.767L232.195 131.28L244.146 127.215L243.197 123.602Z" fill="#E68C0B"/>
<path d="M245.495 133.032L231.368 137.397L230.725 140.972L246.119 136.09L245.495 133.032Z" fill="#E68C0B"/>
<path d="M201.549 77.675C200.881 75.5994 189.66 84.8238 189.795 87.3112C190.854 89.3353 202.663 80.0317 201.549 77.675Z" fill="white" fill-opacity="0.327925"/>
<path d="M318.745 45.5289C318.064 44.4233 312.885 51.3513 313.316 52.7706C314.216 53.7908 319.724 46.7336 318.745 45.5289Z" fill="white" fill-opacity="0.327925"/>
<path d="M226.529 13.2272C227.249 11.2453 213.205 11.6427 211.834 13.6235C211.444 15.7983 225.983 15.6885 226.529 13.2272Z" fill="white" fill-opacity="0.327925"/>
<path d="M204.04 85.0938L204.215 88.1521L179.514 105.346L177.681 105.459L204.04 85.0938Z" fill="black" fill-opacity="0.327925"/>
<path d="M279.665 90.5753L285.912 88.7065L312.003 67.1077L312.96 64.3367L279.625 88.3047L279.665 90.5753Z" fill="black" fill-opacity="0.327925"/>
<path d="M212.065 22.3874L212.203 24.1562L275.469 23.1692L275.912 21.6924L212.065 22.3874Z" fill="black" fill-opacity="0.327925"/>
<path d="M224.773 151.313L222.166 150.669L214.438 179.243L217.066 178.137L224.773 151.313Z" fill="black" fill-opacity="0.327925"/>
<path d="M214.496 179.208L214.227 196.251L216.6 196.852C217.894 190.27 217.808 184.129 217.191 178.157L214.496 179.208Z" fill="black" fill-opacity="0.327925"/>
<path d="M270.78 32.9817L280.08 37.3052C281.426 74.5629 280.429 111.286 271.623 143.366C270.626 149.54 267.545 151.626 263.536 151.894C266.755 111.975 272.408 71.2047 270.78 32.9817Z" fill="black" fill-opacity="0.116077"/>
<path d="M251.741 153.606L259.622 179.986L261.975 181.123L253.917 153.498L251.741 153.606Z" fill="black" fill-opacity="0.116077"/>
<path d="M259.595 179.988C258.499 179.988 258.736 197.38 260.329 198.044C261.248 198.427 262.475 198.203 262.475 198.203C261.919 192.406 261.996 186.715 261.97 181.008L259.595 179.988Z" fill="black" fill-opacity="0.116077"/>
<path d="M291.68 10.7C292.3 22.5156 293.616 34.5348 296.572 46.253L295.15 46.4299C291.693 35.0523 290.981 23.0726 290.401 11.3699L291.68 10.7Z" fill="#552200" fill-opacity="0.961137"/>
<path d="M295.262 46.2595L293.047 55.3725L294.753 55.2273L295.262 46.2595Z" fill="#AA4400" fill-opacity="0.961137"/>
<path d="M296.485 46.0132L302.634 52.4596L301.016 53.1878L296.485 46.0132Z" fill="#803300" fill-opacity="0.961137"/>
<path d="M295.171 46.282L291.572 55.1671L293.281 55.2782L295.171 46.282Z" fill="#552200" fill-opacity="0.961137"/>
<path d="M296.268 46.7966L300.752 54.3011L299.126 55.8702L296.268 46.7966Z" fill="#AA4400" fill-opacity="0.961137"/>
<path d="M295.477 46.5117L295.032 55.5293L296.107 55.139L295.477 46.5117Z" fill="#552200" fill-opacity="0.961137"/>
<path d="M296.77 46.3035L301.486 53.7164L299.778 54.1953L296.77 46.3035Z" fill="#552200" fill-opacity="0.961137"/>
<path d="M296.327 46.531L299.554 55.3348L297.095 55.4595L296.327 46.531Z" fill="#552200" fill-opacity="0.961137"/>
<path d="M295.618 46.2314L296.522 55.2146L297.527 54.6683L295.618 46.2314Z" fill="#803300" fill-opacity="0.961137"/>
<path d="M295.144 46.2426L294.353 48.7393C295.302 51.3947 298.577 50.2456 298.467 48.041L296.508 46L295.144 46.2426Z" fill="#552100"/>
</g>
<defs>
<radialGradient id="paint0_radial_405_7" cx="0" cy="0" r="1" gradientUnits="userSpaceOnUse" gradientTransform="translate(85.5593 50.8981) rotate(1.27232) scale(28.024 6.90274)">
<stop stop-color="white"/>
<stop offset="1" stop-color="white" stop-opacity="0.586185"/>
</radialGradient>
<radialGradient id="paint1_radial_405_7" cx="0" cy="0" r="1" gradientUnits="userSpaceOnUse" gradientTransform="translate(111.87 50.579) rotate(178.728) scale(28.024 6.90274)">
<stop stop-color="white"/>
<stop offset="1" stop-color="white" stop-opacity="0.586185"/>
</radialGradient>
<linearGradient id="paint2_linear_405_7" x1="204.17" y1="89.6899" x2="281.956" y2="89.6899" gradientUnits="userSpaceOnUse">
<stop stop-color="#8FBE32"/>
<stop offset="1" stop-color="#688B25"/>
</linearGradient>
<linearGradient id="paint3_linear_405_7" x1="212.106" y1="28.5116" x2="276.028" y2="28.5116" gradientUnits="userSpaceOnUse">
<stop stop-color="#1A1A1A"/>
<stop offset="1" stop-color="#525252"/>
</linearGradient>
<linearGradient id="paint4_linear_405_7" x1="194.826" y1="15.2142" x2="292.444" y2="15.2142" gradientUnits="userSpaceOnUse">
<stop stop-color="#1A1A1A"/>
<stop offset="1" stop-color="#505050"/>
</linearGradient>
<radialGradient id="paint5_radial_405_7" cx="0" cy="0" r="1" gradientUnits="userSpaceOnUse" gradientTransform="translate(251.106 59.9914) rotate(1.27232) scale(35.1725 8.66352)">
<stop stop-color="white"/>
<stop offset="1" stop-color="white" stop-opacity="0.586185"/>
</radialGradient>
<radialGradient id="paint6_radial_405_7" cx="0" cy="0" r="1" gradientUnits="userSpaceOnUse" gradientTransform="translate(222.581 58.9577) rotate(1.27232) scale(35.1725 8.66352)">
<stop stop-color="white"/>
<stop offset="1" stop-color="white" stop-opacity="0.586185"/>
</radialGradient>
<clipPath id="clip0_405_7">
<rect width="205.514" height="210.599" fill="white" transform="translate(137 8)"/>
</clipPath>
</defs>
</svg>
