<svg width="118" height="118" viewBox="0 0 118 118" fill="none" xmlns="http://www.w3.org/2000/svg">
<path d="M51.625 84.8125C51.625 85.7905 51.2365 86.7284 50.545 87.4199C49.8534 88.1115 48.9155 88.5 47.9375 88.5H36.875V99.5625C36.875 100.54 36.4865 101.478 35.795 102.17C35.1034 102.861 34.1655 103.25 33.1875 103.25C32.2095 103.25 31.2716 102.861 30.58 102.17C29.8885 101.478 29.5 100.54 29.5 99.5625V88.5H18.4375C17.4595 88.5 16.5216 88.1115 15.83 87.4199C15.1385 86.7284 14.75 85.7905 14.75 84.8125C14.75 83.8345 15.1385 82.8966 15.83 82.205C16.5216 81.5135 17.4595 81.125 18.4375 81.125H29.5V70.0625C29.5 69.0845 29.8885 68.1466 30.58 67.455C31.2716 66.7635 32.2095 66.375 33.1875 66.375C34.1655 66.375 35.1034 66.7635 35.795 67.455C36.4865 68.1466 36.875 69.0845 36.875 70.0625V81.125H47.9375C48.9155 81.125 49.8534 81.5135 50.545 82.205C51.2365 82.8966 51.625 83.8345 51.625 84.8125ZM47.9375 29.5H18.4375C17.4595 29.5 16.5216 29.8885 15.83 30.58C15.1385 31.2716 14.75 32.2095 14.75 33.1875C14.75 34.1655 15.1385 35.1034 15.83 35.7949C16.5216 36.4865 17.4595 36.875 18.4375 36.875H47.9375C48.9155 36.875 49.8534 36.4865 50.545 35.7949C51.2365 35.1034 51.625 34.1655 51.625 33.1875C51.625 32.2095 51.2365 31.2716 50.545 30.58C49.8534 29.8885 48.9155 29.5 47.9375 29.5ZM70.0625 81.1554H99.5625C100.54 81.1554 101.478 80.7669 102.17 80.0753C102.861 79.3838 103.25 78.4459 103.25 77.4679C103.25 76.4899 102.861 75.552 102.17 74.8604C101.478 74.1689 100.54 73.7804 99.5625 73.7804H70.0625C69.0845 73.7804 68.1466 74.1689 67.455 74.8604C66.7635 75.552 66.375 76.4899 66.375 77.4679C66.375 78.4459 66.7635 79.3838 67.455 80.0753C68.1466 80.7669 69.0845 81.1554 70.0625 81.1554ZM99.5625 88.4696H70.0625C69.0845 88.4696 68.1466 88.858 67.455 89.5496C66.7635 90.2411 66.375 91.1791 66.375 92.1571C66.375 93.135 66.7635 94.073 67.455 94.7645C68.1466 95.456 69.0845 95.8446 70.0625 95.8446H99.5625C100.54 95.8446 101.478 95.456 102.17 94.7645C102.861 94.073 103.25 93.135 103.25 92.1571C103.25 91.1791 102.861 90.2411 102.17 89.5496C101.478 88.858 100.54 88.4696 99.5625 88.4696ZM71.1425 46.8575C71.4849 47.1999 71.8914 47.4716 72.3388 47.6569C72.7862 47.8422 73.2657 47.9376 73.75 47.9376C74.2343 47.9376 74.7138 47.8422 75.1612 47.6569C75.6086 47.4716 76.0151 47.1999 76.3575 46.8575L84.8125 38.4021L93.2675 46.8575C93.6099 47.1999 94.0164 47.4715 94.4638 47.6569C94.9112 47.8422 95.3907 47.9376 95.875 47.9376C96.3593 47.9376 96.8388 47.8422 97.2862 47.6569C97.7336 47.4715 98.1401 47.1999 98.4825 46.8575C98.8249 46.5151 99.0966 46.1086 99.2819 45.6612C99.4672 45.2138 99.5626 44.7342 99.5626 44.25C99.5626 43.7657 99.4672 43.2862 99.2819 42.8388C99.0966 42.3914 98.8249 41.9849 98.4825 41.6425L90.0275 33.1875L98.4825 24.7325C98.8249 24.3901 99.0966 23.9836 99.2819 23.5362C99.4672 23.0888 99.5626 22.6092 99.5626 22.125C99.5626 21.6407 99.4672 21.1612 99.2819 20.7138C99.0966 20.2664 98.8249 19.8599 98.4825 19.5174C98.1401 19.175 97.7336 18.9034 97.2862 18.7181C96.8388 18.5328 96.3593 18.4374 95.875 18.4374C95.3907 18.4374 94.9112 18.5328 94.4638 18.7181C94.0164 18.9034 93.6099 19.175 93.2675 19.5174L84.8125 27.9729L76.3575 19.5174C75.666 18.8259 74.728 18.4374 73.75 18.4374C72.772 18.4374 71.834 18.8259 71.1425 19.5174C70.4509 20.209 70.0624 21.147 70.0624 22.125C70.0624 23.103 70.4509 24.0409 71.1425 24.7325L79.5975 33.1875L71.1425 41.6425C70.8 41.9849 70.5284 42.3914 70.3431 42.8388C70.1578 43.2862 70.0624 43.7657 70.0624 44.25C70.0624 44.7342 70.1578 45.2138 70.3431 45.6612C70.5284 46.1086 70.8 46.5151 71.1425 46.8575Z" fill="#A6A6A6"/>
</svg>
