<svg width="136" height="118" viewBox="0 0 136 118" fill="none" xmlns="http://www.w3.org/2000/svg">
<path d="M22.248 19.6V70H10.584V28.96H0.504V19.6H22.248Z" fill="#4326F2"/>
<path d="M81.464 66.496V76H43.376V68.44L62.816 50.08C64.88 48.112 66.272 46.432 66.992 45.04C67.712 43.6 68.072 42.184 68.072 40.792C68.072 38.776 67.376 37.24 65.984 36.184C64.64 35.08 62.648 34.528 60.008 34.528C57.8 34.528 55.808 34.96 54.032 35.824C52.256 36.64 50.768 37.888 49.568 39.568L41.072 34.096C43.04 31.168 45.752 28.888 49.208 27.256C52.664 25.576 56.624 24.736 61.088 24.736C64.832 24.736 68.096 25.36 70.88 26.608C73.712 27.808 75.896 29.536 77.432 31.792C79.016 34 79.808 36.616 79.808 39.64C79.808 42.376 79.232 44.944 78.08 47.344C76.928 49.744 74.696 52.48 71.384 55.552L59.792 66.496H81.464Z" fill="#F91818"/>
<path d="M112.152 100.864C108.648 100.864 105.168 100.408 101.712 99.496C98.256 98.536 95.328 97.192 92.928 95.464L97.464 86.536C99.384 87.928 101.616 89.032 104.16 89.848C106.704 90.664 109.272 91.072 111.864 91.072C114.792 91.072 117.096 90.496 118.776 89.344C120.456 88.192 121.296 86.608 121.296 84.592C121.296 82.672 120.552 81.16 119.064 80.056C117.576 78.952 115.176 78.4 111.864 78.4H106.536V70.696L120.576 54.784L121.872 58.96H95.448V49.6H130.728V57.16L116.76 73.072L110.856 69.688H114.24C120.432 69.688 125.112 71.08 128.28 73.864C131.448 76.648 133.032 80.224 133.032 84.592C133.032 87.424 132.288 90.088 130.8 92.584C129.312 95.032 127.032 97.024 123.96 98.56C120.888 100.096 116.952 100.864 112.152 100.864Z" fill="#3CD87A"/>
</svg>
