<svg width="179" height="36" viewBox="0 0 179 36" fill="none" xmlns="http://www.w3.org/2000/svg">
<path d="M13.296 35.576C10.96 35.576 8.64 35.272 6.336 34.664C4.064 34.024 2.112 33.128 0.48 31.976L3.552 26.024C4.832 26.952 6.304 27.688 7.968 28.232C9.664 28.776 11.376 29.048 13.104 29.048C15.056 29.048 16.592 28.664 17.712 27.896C18.832 27.128 19.392 26.056 19.392 24.68C19.392 23.816 19.168 23.048 18.72 22.376C18.272 21.704 17.472 21.192 16.32 20.84C15.2 20.488 13.616 20.312 11.568 20.312H2.976L4.704 1.4H25.2V7.64H7.488L11.52 4.088L10.32 17.576L6.288 14.024H13.392C16.72 14.024 19.392 14.488 21.408 15.416C23.456 16.312 24.944 17.544 25.872 19.112C26.8 20.68 27.264 22.456 27.264 24.44C27.264 26.424 26.768 28.264 25.776 29.96C24.784 31.624 23.248 32.984 21.168 34.04C19.12 35.064 16.496 35.576 13.296 35.576ZM31.0429 24.488V18.488H44.6269V24.488H31.0429ZM64.0991 35.576C61.0271 35.576 58.3551 34.936 56.0831 33.656C53.8431 32.376 52.1151 30.504 50.8991 28.04C49.6831 25.576 49.0751 22.536 49.0751 18.92C49.0751 15.048 49.7951 11.768 51.2351 9.08C52.7071 6.392 54.7231 4.344 57.2831 2.936C59.8751 1.528 62.8511 0.823999 66.2111 0.823999C68.0031 0.823999 69.7151 1.016 71.3471 1.4C72.9791 1.784 74.3871 2.36 75.5711 3.128L72.6911 8.84C71.7631 8.2 70.7711 7.768 69.7151 7.544C68.6591 7.288 67.5551 7.16 66.4031 7.16C63.4911 7.16 61.1871 8.04 59.4911 9.8C57.7951 11.56 56.9471 14.168 56.9471 17.624C56.9471 18.2 56.9471 18.84 56.9471 19.544C56.9791 20.248 57.0751 20.952 57.2351 21.656L55.0751 19.64C55.6831 18.392 56.4671 17.352 57.4271 16.52C58.3871 15.656 59.5231 15.016 60.8351 14.6C62.1791 14.152 63.6511 13.928 65.2511 13.928C67.4271 13.928 69.3791 14.36 71.1071 15.224C72.8351 16.088 74.2111 17.304 75.2351 18.872C76.2911 20.44 76.8191 22.28 76.8191 24.392C76.8191 26.664 76.2431 28.648 75.0911 30.344C73.9711 32.008 72.4511 33.304 70.5311 34.232C68.6431 35.128 66.4991 35.576 64.0991 35.576ZM63.6671 29.768C64.7551 29.768 65.7151 29.576 66.5471 29.192C67.4111 28.776 68.0831 28.184 68.5631 27.416C69.0431 26.648 69.2831 25.768 69.2831 24.776C69.2831 23.24 68.7551 22.024 67.6991 21.128C66.6751 20.2 65.2991 19.736 63.5711 19.736C62.4191 19.736 61.4111 19.96 60.5471 20.408C59.6831 20.824 58.9951 21.416 58.4831 22.184C58.0031 22.92 57.7631 23.784 57.7631 24.776C57.7631 25.736 58.0031 26.6 58.4831 27.368C58.9631 28.104 59.6351 28.696 60.4991 29.144C61.3631 29.56 62.4191 29.768 63.6671 29.768ZM91.6954 34.952L92.0794 28.808C92.2714 28.84 92.4634 28.872 92.6554 28.904C92.8474 28.904 93.0234 28.904 93.1834 28.904C94.0794 28.904 94.7834 28.648 95.2954 28.136C95.8074 27.624 96.1914 26.936 96.4474 26.072C96.7034 25.176 96.8794 24.168 96.9754 23.048C97.1034 21.928 97.1994 20.76 97.2634 19.544L97.6474 9.176H119.727V35H112.239V13.496L113.919 15.32H102.591L104.175 13.4L103.839 19.88C103.743 22.184 103.551 24.296 103.263 26.216C103.007 28.136 102.575 29.8 101.967 31.208C101.359 32.584 100.543 33.656 99.5194 34.424C98.4954 35.16 97.1834 35.528 95.5834 35.528C95.0074 35.528 94.3994 35.48 93.7594 35.384C93.1194 35.288 92.4314 35.144 91.6954 34.952ZM139.552 35.384C136.608 35.384 134.016 34.808 131.776 33.656C129.568 32.504 127.856 30.936 126.64 28.952C125.424 26.936 124.816 24.648 124.816 22.088C124.816 19.496 125.408 17.208 126.592 15.224C127.808 13.208 129.456 11.64 131.536 10.52C133.616 9.368 135.968 8.792 138.592 8.792C141.12 8.792 143.392 9.336 145.408 10.424C147.456 11.48 149.072 13.016 150.256 15.032C151.44 17.016 152.032 19.4 152.032 22.184C152.032 22.472 152.016 22.808 151.984 23.192C151.952 23.544 151.92 23.88 151.888 24.2H130.912V19.832H147.952L145.072 21.128C145.072 19.784 144.8 18.616 144.256 17.624C143.712 16.632 142.96 15.864 142 15.32C141.04 14.744 139.92 14.456 138.64 14.456C137.36 14.456 136.224 14.744 135.232 15.32C134.272 15.864 133.52 16.648 132.976 17.672C132.432 18.664 132.16 19.848 132.16 21.224V22.376C132.16 23.784 132.464 25.032 133.072 26.12C133.712 27.176 134.592 27.992 135.712 28.568C136.864 29.112 138.208 29.384 139.744 29.384C141.12 29.384 142.32 29.176 143.344 28.76C144.4 28.344 145.36 27.72 146.224 26.888L150.208 31.208C149.024 32.552 147.536 33.592 145.744 34.328C143.952 35.032 141.888 35.384 139.552 35.384ZM162.401 35V13.592L164.081 15.32H153.665V9.176H178.577V15.32H168.161L169.841 13.592V35H162.401Z" fill="#3CD87A"/>
</svg>
