<svg width="179" height="36" viewBox="0 0 179 36" fill="none" xmlns="http://www.w3.org/2000/svg">
<path d="M15.896 35.576C12.824 35.576 10.152 34.936 7.88 33.656C5.64 32.376 3.912 30.504 2.696 28.04C1.48 25.576 0.872 22.536 0.872 18.92C0.872 15.048 1.592 11.768 3.032 9.08C4.504 6.392 6.52 4.344 9.08 2.936C11.672 1.528 14.648 0.823999 18.008 0.823999C19.8 0.823999 21.512 1.016 23.144 1.4C24.776 1.784 26.184 2.36 27.368 3.128L24.488 8.84C23.56 8.2 22.568 7.768 21.512 7.544C20.456 7.288 19.352 7.16 18.2 7.16C15.288 7.16 12.984 8.04 11.288 9.8C9.592 11.56 8.744 14.168 8.744 17.624C8.744 18.2 8.744 18.84 8.744 19.544C8.776 20.248 8.872 20.952 9.032 21.656L6.872 19.64C7.48 18.392 8.264 17.352 9.224 16.52C10.184 15.656 11.32 15.016 12.632 14.6C13.976 14.152 15.448 13.928 17.048 13.928C19.224 13.928 21.176 14.36 22.904 15.224C24.632 16.088 26.008 17.304 27.032 18.872C28.088 20.44 28.616 22.28 28.616 24.392C28.616 26.664 28.04 28.648 26.888 30.344C25.768 32.008 24.248 33.304 22.328 34.232C20.44 35.128 18.296 35.576 15.896 35.576ZM15.464 29.768C16.552 29.768 17.512 29.576 18.344 29.192C19.208 28.776 19.88 28.184 20.36 27.416C20.84 26.648 21.08 25.768 21.08 24.776C21.08 23.24 20.552 22.024 19.496 21.128C18.472 20.2 17.096 19.736 15.368 19.736C14.216 19.736 13.208 19.96 12.344 20.408C11.48 20.824 10.792 21.416 10.28 22.184C9.8 22.92 9.56 23.784 9.56 24.776C9.56 25.736 9.8 26.6 10.28 27.368C10.76 28.104 11.432 28.696 12.296 29.144C13.16 29.56 14.216 29.768 15.464 29.768ZM32.2929 24.488V18.488H45.8769V24.488H32.2929ZM55.0918 35L68.6278 4.376L70.6438 7.736H52.5478L56.0038 4.088V13.208H49.0918V1.4H76.0198V6.44L63.5398 35H55.0918ZM91.5391 34.952L91.9231 28.808C92.1151 28.84 92.3071 28.872 92.4991 28.904C92.6911 28.904 92.8671 28.904 93.0271 28.904C93.9231 28.904 94.6271 28.648 95.1391 28.136C95.6511 27.624 96.0351 26.936 96.2911 26.072C96.5471 25.176 96.7231 24.168 96.8191 23.048C96.9471 21.928 97.0431 20.76 97.1071 19.544L97.4911 9.176H119.571V35H112.083V13.496L113.763 15.32H102.435L104.019 13.4L103.683 19.88C103.587 22.184 103.395 24.296 103.107 26.216C102.851 28.136 102.419 29.8 101.811 31.208C101.203 32.584 100.387 33.656 99.3631 34.424C98.3391 35.16 97.0271 35.528 95.4271 35.528C94.8511 35.528 94.2431 35.48 93.6031 35.384C92.9631 35.288 92.2751 35.144 91.5391 34.952ZM139.396 35.384C136.452 35.384 133.86 34.808 131.62 33.656C129.412 32.504 127.7 30.936 126.484 28.952C125.268 26.936 124.66 24.648 124.66 22.088C124.66 19.496 125.252 17.208 126.436 15.224C127.652 13.208 129.3 11.64 131.38 10.52C133.46 9.368 135.812 8.792 138.436 8.792C140.964 8.792 143.236 9.336 145.252 10.424C147.3 11.48 148.916 13.016 150.1 15.032C151.284 17.016 151.876 19.4 151.876 22.184C151.876 22.472 151.86 22.808 151.828 23.192C151.796 23.544 151.764 23.88 151.732 24.2H130.756V19.832H147.796L144.916 21.128C144.916 19.784 144.644 18.616 144.1 17.624C143.556 16.632 142.804 15.864 141.844 15.32C140.884 14.744 139.764 14.456 138.484 14.456C137.204 14.456 136.068 14.744 135.076 15.32C134.116 15.864 133.364 16.648 132.82 17.672C132.276 18.664 132.004 19.848 132.004 21.224V22.376C132.004 23.784 132.308 25.032 132.916 26.12C133.556 27.176 134.436 27.992 135.556 28.568C136.708 29.112 138.052 29.384 139.588 29.384C140.964 29.384 142.164 29.176 143.188 28.76C144.244 28.344 145.204 27.72 146.068 26.888L150.052 31.208C148.868 32.552 147.38 33.592 145.588 34.328C143.796 35.032 141.732 35.384 139.396 35.384ZM162.245 35V13.592L163.925 15.32H153.509V9.176H178.421V15.32H168.005L169.685 13.592V35H162.245Z" fill="#F91818"/>
</svg>
