<svg width="180" height="35" viewBox="0 0 180 35" fill="none" xmlns="http://www.w3.org/2000/svg">
<path d="M7.056 34V3.28L10.416 6.64H0.336V0.399998H14.832V34H7.056ZM54.2786 34L45.6386 21.76L51.7346 18.16L63.1106 34H54.2786ZM35.9906 34V8.176H43.4786V34H35.9906ZM41.2706 24.208V18.208H50.2946V24.208H41.2706ZM52.4546 21.952L45.4466 21.184L54.5186 8.176H62.4866L52.4546 21.952ZM63.5235 33.952L63.9075 27.808C64.0995 27.84 64.2915 27.872 64.4835 27.904C64.6755 27.904 64.8515 27.904 65.0115 27.904C65.9075 27.904 66.6115 27.648 67.1235 27.136C67.6355 26.624 68.0195 25.936 68.2755 25.072C68.5315 24.176 68.7075 23.168 68.8035 22.048C68.9315 20.928 69.0275 19.76 69.0915 18.544L69.4755 8.176H91.5555V34H84.0675V12.496L85.7475 14.32H74.4195L76.0035 12.4L75.6675 18.88C75.5715 21.184 75.3795 23.296 75.0915 25.216C74.8355 27.136 74.4035 28.8 73.7955 30.208C73.1875 31.584 72.3715 32.656 71.3475 33.424C70.3235 34.16 69.0115 34.528 67.4115 34.528C66.8355 34.528 66.2275 34.48 65.5875 34.384C64.9475 34.288 64.2595 34.144 63.5235 33.952ZM114.212 34V28.96L113.732 27.856V18.832C113.732 17.232 113.236 15.984 112.244 15.088C111.284 14.192 109.796 13.744 107.78 13.744C106.404 13.744 105.044 13.968 103.7 14.416C102.388 14.832 101.268 15.408 100.34 16.144L97.6523 10.912C99.0603 9.92 100.756 9.152 102.74 8.608C104.724 8.064 106.74 7.792 108.788 7.792C112.724 7.792 115.78 8.72 117.956 10.576C120.132 12.432 121.22 15.328 121.22 19.264V34H114.212ZM106.34 34.384C104.324 34.384 102.596 34.048 101.156 33.376C99.7163 32.672 98.6123 31.728 97.8443 30.544C97.0763 29.36 96.6923 28.032 96.6923 26.56C96.6923 25.024 97.0603 23.68 97.7963 22.528C98.5643 21.376 99.7643 20.48 101.396 19.84C103.028 19.168 105.156 18.832 107.78 18.832H114.644V23.2H108.596C106.836 23.2 105.62 23.488 104.948 24.064C104.308 24.64 103.988 25.36 103.988 26.224C103.988 27.184 104.356 27.952 105.092 28.528C105.86 29.072 106.9 29.344 108.212 29.344C109.46 29.344 110.58 29.056 111.572 28.48C112.564 27.872 113.284 26.992 113.732 25.84L114.884 29.296C114.34 30.96 113.348 32.224 111.908 33.088C110.468 33.952 108.612 34.384 106.34 34.384ZM140.013 34.384C137.229 34.384 134.749 33.824 132.573 32.704C130.397 31.552 128.685 29.968 127.437 27.952C126.221 25.936 125.613 23.648 125.613 21.088C125.613 18.496 126.221 16.208 127.437 14.224C128.685 12.208 130.397 10.64 132.573 9.52C134.749 8.368 137.229 7.792 140.013 7.792C142.733 7.792 145.101 8.368 147.117 9.52C149.133 10.64 150.621 12.256 151.581 14.368L145.773 17.488C145.101 16.272 144.253 15.376 143.229 14.8C142.237 14.224 141.149 13.936 139.965 13.936C138.685 13.936 137.533 14.224 136.509 14.8C135.485 15.376 134.669 16.192 134.061 17.248C133.485 18.304 133.197 19.584 133.197 21.088C133.197 22.592 133.485 23.872 134.061 24.928C134.669 25.984 135.485 26.8 136.509 27.376C137.533 27.952 138.685 28.24 139.965 28.24C141.149 28.24 142.237 27.968 143.229 27.424C144.253 26.848 145.101 25.936 145.773 24.688L151.581 27.856C150.621 29.936 149.133 31.552 147.117 32.704C145.101 33.824 142.733 34.384 140.013 34.384ZM168.091 34.384C165.307 34.384 162.827 33.824 160.651 32.704C158.475 31.552 156.763 29.968 155.515 27.952C154.299 25.936 153.691 23.648 153.691 21.088C153.691 18.496 154.299 16.208 155.515 14.224C156.763 12.208 158.475 10.64 160.651 9.52C162.827 8.368 165.307 7.792 168.091 7.792C170.811 7.792 173.179 8.368 175.195 9.52C177.211 10.64 178.699 12.256 179.659 14.368L173.851 17.488C173.179 16.272 172.331 15.376 171.307 14.8C170.315 14.224 169.227 13.936 168.043 13.936C166.763 13.936 165.611 14.224 164.587 14.8C163.563 15.376 162.747 16.192 162.139 17.248C161.563 18.304 161.275 19.584 161.275 21.088C161.275 22.592 161.563 23.872 162.139 24.928C162.747 25.984 163.563 26.8 164.587 27.376C165.611 27.952 166.763 28.24 168.043 28.24C169.227 28.24 170.315 27.968 171.307 27.424C172.331 26.848 173.179 25.936 173.851 24.688L179.659 27.856C178.699 29.936 177.211 31.552 175.195 32.704C173.179 33.824 170.811 34.384 168.091 34.384Z" fill="#4326F2"/>
</svg>
